<svg xmlns="http://www.w3.org/2000/svg" xmlns:xlink="http://www.w3.org/1999/xlink" width="288.719" height="51.487" viewBox="0 0 288.719 51.487">
  <defs>
    <clipPath id="clip-path">
      <rect id="Rectangle_1620" data-name="Rectangle 1620" width="288.719" height="51.487" fill="none"/>
    </clipPath>
  </defs>
  <g id="Group_15910" data-name="Group 15910" transform="translate(0 0)">
    <path id="Path_10391" data-name="Path 10391" d="M2.862,1.675H16v2.3H5.343v6.554h9.951v2.3H5.343v7.442H16.534v2.3H2.862Z" transform="translate(-0.441 -0.258)" fill="#4e4e4e"/>
    <g id="Group_15909" data-name="Group 15909" transform="translate(0 0)">
      <g id="Group_15908" data-name="Group 15908" clip-path="url(#clip-path)">
        <path id="Path_10392" data-name="Path 10392" d="M23.19,13.266q0-.945-.059-1.772t-.059-1.506h2.185q0,.562.03,1.123t.03,1.151h.059a4,4,0,0,1,.664-.975,4.783,4.783,0,0,1,1.019-.842,5.475,5.475,0,0,1,1.328-.59,5.542,5.542,0,0,1,1.595-.222,5.418,5.418,0,0,1,1.875.281,4.581,4.581,0,0,1,1.255.679,3.327,3.327,0,0,1,.783.856q.28.458.458.812a6.384,6.384,0,0,1,1.772-1.934,4.474,4.474,0,0,1,2.6-.695,6.758,6.758,0,0,1,2.481.4,3.935,3.935,0,0,1,1.623,1.151,4.547,4.547,0,0,1,.887,1.831,10.089,10.089,0,0,1,.266,2.407v8.386h-2.3V15.539a6.538,6.538,0,0,0-.147-1.388A3.21,3.21,0,0,0,41,12.941a2.779,2.779,0,0,0-1.033-.856,3.7,3.7,0,0,0-1.654-.326,3.306,3.306,0,0,0-1.387.3,3.479,3.479,0,0,0-1.138.826,3.876,3.876,0,0,0-.767,1.285,4.728,4.728,0,0,0-.281,1.668v7.972h-2.3V15.982a6.316,6.316,0,0,0-.62-3.263,2.24,2.24,0,0,0-2.037-.96,4.491,4.491,0,0,0-1.934.384,3.431,3.431,0,0,0-1.329,1.093,4.91,4.91,0,0,0-.768,1.683,8.628,8.628,0,0,0-.25,2.155v6.733h-2.3Z" transform="translate(-3.554 -1.484)" fill="#4e4e4e"/>
        <path id="Path_10393" data-name="Path 10393" d="M52.708,3.358A1.641,1.641,0,0,1,53.2,2.177a1.674,1.674,0,0,1,2.392,0,1.641,1.641,0,0,1,.487,1.181,1.684,1.684,0,1,1-3.366,0m.531,5.4h2.3v13.82h-2.3Z" transform="translate(-8.119 -0.258)" fill="#4e4e4e"/>
        <path id="Path_10394" data-name="Path 10394" d="M61.587,13.266q0-.945-.059-1.772t-.059-1.506h2.185q0,.562.03,1.123t.03,1.151h.059a4,4,0,0,1,.664-.975,4.783,4.783,0,0,1,1.019-.842,5.475,5.475,0,0,1,1.328-.59,5.542,5.542,0,0,1,1.595-.222,3.868,3.868,0,0,1,.473.03,2.1,2.1,0,0,1,.472.118l-.147,2.333a4.289,4.289,0,0,0-1.24-.178A3.5,3.5,0,0,0,64.85,13.31a6.481,6.481,0,0,0-.959,3.765v6.733h-2.3Z" transform="translate(-9.469 -1.484)" fill="#4e4e4e"/>
        <path id="Path_10395" data-name="Path 10395" d="M73.713,11.76a6.5,6.5,0,0,1,2.525-1.61,8.866,8.866,0,0,1,2.968-.516q3.071,0,4.429,1.447a6.234,6.234,0,0,1,1.358,4.4v5.935q0,.591.059,1.226t.148,1.167H82.986a4.761,4.761,0,0,1-.133-1.049q-.015-.576-.015-1.019h-.059a5.406,5.406,0,0,1-1.815,1.743,5.237,5.237,0,0,1-2.732.678,7.206,7.206,0,0,1-1.993-.266,4.955,4.955,0,0,1-1.624-.783,3.848,3.848,0,0,1-1.107-1.284,3.678,3.678,0,0,1-.414-1.772,3.847,3.847,0,0,1,.886-2.687,5.386,5.386,0,0,1,2.2-1.447,10.854,10.854,0,0,1,2.835-.59q1.52-.118,2.79-.118h.886V14.8a2.825,2.825,0,0,0-.9-2.274,3.781,3.781,0,0,0-2.525-.767,6.763,6.763,0,0,0-2.2.369,5.286,5.286,0,0,0-1.9,1.137Zm6.674,5.4a8.264,8.264,0,0,0-3.514.62,2.105,2.105,0,0,0-1.3,2.037,2.005,2.005,0,0,0,.871,1.846,4.007,4.007,0,0,0,2.171.546,4.232,4.232,0,0,0,1.756-.34,3.679,3.679,0,0,0,1.255-.9,3.873,3.873,0,0,0,.767-1.314,5.336,5.336,0,0,0,.3-1.609v-.886Z" transform="translate(-11.259 -1.484)" fill="#4e4e4e"/>
        <path id="Path_10396" data-name="Path 10396" d="M99.517,11.287H95.442V18.2q0,.68.03,1.255a2.59,2.59,0,0,0,.236,1,1.581,1.581,0,0,0,.62.679,2.289,2.289,0,0,0,1.181.251,4.712,4.712,0,0,0,1.034-.118,4.313,4.313,0,0,0,1-.354l.089,2.1a5.277,5.277,0,0,1-1.315.383,8.542,8.542,0,0,1-1.373.118,5,5,0,0,1-1.979-.325,2.688,2.688,0,0,1-1.151-.915,3.406,3.406,0,0,1-.546-1.462,12.957,12.957,0,0,1-.133-1.934V11.287H90.127V9.338h3.012V5.411h2.3V9.338h4.075Z" transform="translate(-13.883 -0.834)" fill="#4e4e4e"/>
        <path id="Path_10397" data-name="Path 10397" d="M116.916,21.3a7,7,0,0,1-2.717,2.229,8.6,8.6,0,0,1-3.425.635,7.133,7.133,0,0,1-2.923-.576,6.57,6.57,0,0,1-2.2-1.55,6.776,6.776,0,0,1-1.387-2.3,8.168,8.168,0,0,1-.488-2.835,7.918,7.918,0,0,1,.532-2.938,6.8,6.8,0,0,1,1.476-2.3,6.646,6.646,0,0,1,2.244-1.492,7.43,7.43,0,0,1,2.835-.531,7.053,7.053,0,0,1,2.657.487,5.76,5.76,0,0,1,2.082,1.418,6.369,6.369,0,0,1,1.343,2.273,9.176,9.176,0,0,1,.473,3.056v.739H106.256a4.82,4.82,0,0,0,.428,1.7,4.891,4.891,0,0,0,.959,1.417,4.423,4.423,0,0,0,1.388.96,4.241,4.241,0,0,0,1.742.354,5.507,5.507,0,0,0,2.54-.532,5.772,5.772,0,0,0,1.86-1.564Zm-1.979-5.64a3.976,3.976,0,0,0-1.151-2.835,4.141,4.141,0,0,0-3.012-1.063,4.256,4.256,0,0,0-4.517,3.9Z" transform="translate(-15.986 -1.484)" fill="#4e4e4e"/>
        <path id="Path_10398" data-name="Path 10398" d="M124.281,20.175a5.814,5.814,0,0,0,1.491,1.359,3.844,3.844,0,0,0,2.052.5,5.042,5.042,0,0,0,1.078-.118,3.224,3.224,0,0,0,.989-.383,2.2,2.2,0,0,0,.709-.665,1.692,1.692,0,0,0,.266-.959,1.547,1.547,0,0,0-.251-.915,2.189,2.189,0,0,0-.664-.606,3.754,3.754,0,0,0-.945-.4q-.532-.147-1.093-.266-.973-.207-1.86-.473a6.082,6.082,0,0,1-1.55-.694,3.256,3.256,0,0,1-1.063-1.107,3.407,3.407,0,0,1-.4-1.742,3.476,3.476,0,0,1,.443-1.772,3.836,3.836,0,0,1,1.181-1.27,5.784,5.784,0,0,1,1.653-.768,6.764,6.764,0,0,1,1.89-.266,6.338,6.338,0,0,1,2.732.59,4.262,4.262,0,0,1,1.964,1.919l-1.919,1.27a3.585,3.585,0,0,0-1.167-1.2,3.228,3.228,0,0,0-1.757-.458,4.106,4.106,0,0,0-.959.118,3.019,3.019,0,0,0-.871.354,2.078,2.078,0,0,0-.635.606,1.46,1.46,0,0,0-.25.841,1.084,1.084,0,0,0,.28.754,2.467,2.467,0,0,0,.768.546,6.684,6.684,0,0,0,1.122.414,13.315,13.315,0,0,0,1.315.3,13.377,13.377,0,0,1,1.742.458,5.081,5.081,0,0,1,1.447.753,3.342,3.342,0,0,1,.975,1.182,3.871,3.871,0,0,1,.354,1.742,4,4,0,0,1-.472,2.008,3.925,3.925,0,0,1-1.255,1.343,5.512,5.512,0,0,1-1.771.753,8.69,8.69,0,0,1-2.023.236,7.785,7.785,0,0,1-3.056-.546,5.55,5.55,0,0,1-2.318-2.024Z" transform="translate(-18.863 -1.484)" fill="#4e4e4e"/>
        <rect id="Rectangle_1617" data-name="Rectangle 1617" width="2.48" height="20.906" transform="translate(124.862 1.417)" fill="#4e4e4e"/>
        <path id="Path_10399" data-name="Path 10399" d="M156.3,13.266q0-.945-.059-1.772t-.059-1.506h2.185q0,.562.03,1.123t.03,1.151h.059a4,4,0,0,1,.664-.975,4.784,4.784,0,0,1,1.019-.842,5.475,5.475,0,0,1,1.328-.59,5.542,5.542,0,0,1,1.595-.222,6.081,6.081,0,0,1,2.348.414,4.414,4.414,0,0,1,1.639,1.152,4.664,4.664,0,0,1,.959,1.786,8.055,8.055,0,0,1,.31,2.288v8.534h-2.3v-8.3a4.418,4.418,0,0,0-.768-2.746,2.817,2.817,0,0,0-2.392-1,4.491,4.491,0,0,0-1.934.384,3.431,3.431,0,0,0-1.329,1.093,4.911,4.911,0,0,0-.768,1.683,8.629,8.629,0,0,0-.25,2.155v6.733h-2.3Z" transform="translate(-24.059 -1.484)" fill="#4e4e4e"/>
        <path id="Path_10400" data-name="Path 10400" d="M183.1,11.287h-4.075V18.2q0,.68.03,1.255a2.59,2.59,0,0,0,.236,1,1.581,1.581,0,0,0,.62.679,2.289,2.289,0,0,0,1.181.251,4.713,4.713,0,0,0,1.034-.118,4.313,4.313,0,0,0,1-.354l.089,2.1a5.277,5.277,0,0,1-1.315.383,8.541,8.541,0,0,1-1.373.118,5,5,0,0,1-1.979-.325,2.688,2.688,0,0,1-1.151-.915,3.406,3.406,0,0,1-.546-1.462,12.957,12.957,0,0,1-.133-1.934V11.287h-3.012V9.338h3.012V5.411h2.3V9.338H183.1Z" transform="translate(-26.758 -0.834)" fill="#4e4e4e"/>
        <path id="Path_10401" data-name="Path 10401" d="M200.5,21.3a7,7,0,0,1-2.717,2.229,8.6,8.6,0,0,1-3.425.635,7.133,7.133,0,0,1-2.923-.576,6.57,6.57,0,0,1-2.2-1.55,6.776,6.776,0,0,1-1.387-2.3,8.168,8.168,0,0,1-.488-2.835,7.917,7.917,0,0,1,.532-2.938,6.8,6.8,0,0,1,1.476-2.3,6.646,6.646,0,0,1,2.244-1.492,7.43,7.43,0,0,1,2.835-.531,7.053,7.053,0,0,1,2.657.487,5.76,5.76,0,0,1,2.082,1.418,6.369,6.369,0,0,1,1.343,2.273A9.176,9.176,0,0,1,201,16.869v.739H189.837a4.821,4.821,0,0,0,.428,1.7,4.891,4.891,0,0,0,.959,1.417,4.423,4.423,0,0,0,1.388.96,4.241,4.241,0,0,0,1.742.354,5.507,5.507,0,0,0,2.54-.532,5.772,5.772,0,0,0,1.86-1.564Zm-1.979-5.64a3.976,3.976,0,0,0-1.151-2.835,4.141,4.141,0,0,0-3.012-1.063,4.256,4.256,0,0,0-4.517,3.9Z" transform="translate(-28.861 -1.484)" fill="#4e4e4e"/>
        <path id="Path_10402" data-name="Path 10402" d="M207.824,13.266q0-.945-.059-1.772t-.059-1.506h2.185q0,.562.03,1.123t.03,1.151h.059a4,4,0,0,1,.664-.975,4.782,4.782,0,0,1,1.019-.842,5.475,5.475,0,0,1,1.328-.59,5.542,5.542,0,0,1,1.595-.222,3.868,3.868,0,0,1,.473.03,2.1,2.1,0,0,1,.472.118l-.147,2.333a4.289,4.289,0,0,0-1.24-.178,3.5,3.5,0,0,0-3.086,1.373,6.481,6.481,0,0,0-.959,3.765v6.733h-2.3Z" transform="translate(-31.996 -1.484)" fill="#4e4e4e"/>
        <path id="Path_10403" data-name="Path 10403" d="M220.251,13.266q0-.945-.059-1.772t-.059-1.506h2.185q0,.562.03,1.123t.03,1.151h.059a4,4,0,0,1,.664-.975,4.783,4.783,0,0,1,1.019-.842,5.476,5.476,0,0,1,1.328-.59,5.542,5.542,0,0,1,1.595-.222,6.081,6.081,0,0,1,2.348.414A4.414,4.414,0,0,1,231.03,11.2a4.663,4.663,0,0,1,.959,1.786,8.055,8.055,0,0,1,.31,2.288v8.534H230v-8.3a4.418,4.418,0,0,0-.768-2.746,2.817,2.817,0,0,0-2.392-1,4.491,4.491,0,0,0-1.934.384,3.431,3.431,0,0,0-1.329,1.093,4.91,4.91,0,0,0-.768,1.683,8.628,8.628,0,0,0-.25,2.155v6.733h-2.3Z" transform="translate(-33.91 -1.484)" fill="#4e4e4e"/>
        <path id="Path_10404" data-name="Path 10404" d="M239.5,11.76a6.5,6.5,0,0,1,2.525-1.61,8.866,8.866,0,0,1,2.968-.516q3.071,0,4.429,1.447a6.234,6.234,0,0,1,1.358,4.4v5.935q0,.591.059,1.226t.148,1.167H248.77a4.76,4.76,0,0,1-.133-1.049q-.015-.576-.015-1.019h-.059a5.407,5.407,0,0,1-1.815,1.743,5.237,5.237,0,0,1-2.732.678,7.206,7.206,0,0,1-1.993-.266,4.955,4.955,0,0,1-1.624-.783,3.848,3.848,0,0,1-1.107-1.284,3.678,3.678,0,0,1-.414-1.772,3.847,3.847,0,0,1,.886-2.687,5.385,5.385,0,0,1,2.2-1.447,10.854,10.854,0,0,1,2.835-.59q1.52-.118,2.79-.118h.886V14.8a2.825,2.825,0,0,0-.9-2.274,3.781,3.781,0,0,0-2.525-.767,6.763,6.763,0,0,0-2.2.369,5.286,5.286,0,0,0-1.9,1.137Zm6.674,5.4a8.264,8.264,0,0,0-3.514.62,2.1,2.1,0,0,0-1.3,2.037,2.005,2.005,0,0,0,.871,1.846,4.007,4.007,0,0,0,2.171.546,4.232,4.232,0,0,0,1.756-.34,3.68,3.68,0,0,0,1.255-.9,3.873,3.873,0,0,0,.767-1.314,5.336,5.336,0,0,0,.3-1.609v-.886Z" transform="translate(-36.797 -1.484)" fill="#4e4e4e"/>
        <path id="Path_10405" data-name="Path 10405" d="M265.3,11.287h-4.075V18.2q0,.68.03,1.255a2.59,2.59,0,0,0,.236,1,1.581,1.581,0,0,0,.62.679,2.289,2.289,0,0,0,1.181.251,4.712,4.712,0,0,0,1.034-.118,4.312,4.312,0,0,0,1-.354l.089,2.1a5.277,5.277,0,0,1-1.315.383,8.541,8.541,0,0,1-1.373.118,5,5,0,0,1-1.979-.325,2.688,2.688,0,0,1-1.151-.915,3.406,3.406,0,0,1-.546-1.462,12.957,12.957,0,0,1-.133-1.934V11.287h-3.012V9.338h3.012V5.411h2.3V9.338H265.3Z" transform="translate(-39.421 -0.834)" fill="#4e4e4e"/>
        <path id="Path_10406" data-name="Path 10406" d="M270.153,3.358a1.641,1.641,0,0,1,.487-1.181,1.675,1.675,0,0,1,2.392,0,1.641,1.641,0,0,1,.487,1.181,1.684,1.684,0,1,1-3.367,0m.531,5.4h2.3v13.82h-2.3Z" transform="translate(-41.615 -0.258)" fill="#4e4e4e"/>
        <path id="Path_10407" data-name="Path 10407" d="M278.112,16.9a7.518,7.518,0,0,1,.561-2.952,6.984,6.984,0,0,1,1.535-2.289,6.826,6.826,0,0,1,2.333-1.491,8.472,8.472,0,0,1,5.906,0,6.835,6.835,0,0,1,2.333,1.491,7.01,7.01,0,0,1,1.535,2.289,7.533,7.533,0,0,1,.561,2.952,7.533,7.533,0,0,1-.561,2.952,7,7,0,0,1-1.535,2.289,6.835,6.835,0,0,1-2.333,1.491,8.472,8.472,0,0,1-5.906,0,6.826,6.826,0,0,1-2.333-1.491,6.975,6.975,0,0,1-1.535-2.289,7.518,7.518,0,0,1-.561-2.952m2.48,0a5.868,5.868,0,0,0,.339,2.023,4.668,4.668,0,0,0,2.54,2.716,5.323,5.323,0,0,0,4.045,0,4.661,4.661,0,0,0,2.54-2.716,6.185,6.185,0,0,0,0-4.045,4.661,4.661,0,0,0-2.54-2.716,5.323,5.323,0,0,0-4.045,0,4.668,4.668,0,0,0-2.54,2.716,5.868,5.868,0,0,0-.339,2.023" transform="translate(-42.841 -1.484)" fill="#4e4e4e"/>
        <path id="Path_10408" data-name="Path 10408" d="M299.906,13.266q0-.945-.059-1.772t-.059-1.506h2.185q0,.562.03,1.123t.03,1.151h.059a3.977,3.977,0,0,1,.665-.975,4.772,4.772,0,0,1,1.018-.842,5.49,5.49,0,0,1,2.924-.812,6.078,6.078,0,0,1,2.348.414,4.4,4.4,0,0,1,1.639,1.152,4.653,4.653,0,0,1,.96,1.786,8.055,8.055,0,0,1,.31,2.288v8.534h-2.3v-8.3a4.418,4.418,0,0,0-.768-2.746,2.818,2.818,0,0,0-2.391-1,4.493,4.493,0,0,0-1.934.384,3.437,3.437,0,0,0-1.329,1.093,4.894,4.894,0,0,0-.768,1.683,8.626,8.626,0,0,0-.25,2.155v6.733h-2.3Z" transform="translate(-46.18 -1.484)" fill="#4e4e4e"/>
        <path id="Path_10409" data-name="Path 10409" d="M319.152,11.76a6.5,6.5,0,0,1,2.525-1.61,8.87,8.87,0,0,1,2.968-.516q3.071,0,4.429,1.447a6.234,6.234,0,0,1,1.358,4.4v5.935q0,.591.059,1.226t.148,1.167h-2.215a4.811,4.811,0,0,1-.133-1.049q-.015-.576-.015-1.019h-.059a5.406,5.406,0,0,1-1.815,1.743,5.233,5.233,0,0,1-2.732.678,7.206,7.206,0,0,1-1.993-.266,4.955,4.955,0,0,1-1.624-.783,3.857,3.857,0,0,1-1.107-1.284,3.678,3.678,0,0,1-.414-1.772,3.848,3.848,0,0,1,.887-2.687,5.377,5.377,0,0,1,2.2-1.447,10.854,10.854,0,0,1,2.835-.59q1.52-.118,2.791-.118h.886V14.8a2.823,2.823,0,0,0-.9-2.274,3.781,3.781,0,0,0-2.524-.767,6.764,6.764,0,0,0-2.2.369,5.287,5.287,0,0,0-1.9,1.137Zm6.674,5.4a8.264,8.264,0,0,0-3.514.62,2.1,2.1,0,0,0-1.3,2.037,2.007,2.007,0,0,0,.87,1.846,4.007,4.007,0,0,0,2.171.546,4.236,4.236,0,0,0,1.757-.34,3.684,3.684,0,0,0,1.255-.9,3.889,3.889,0,0,0,.768-1.314,5.39,5.39,0,0,0,.3-1.609v-.886Z" transform="translate(-49.067 -1.484)" fill="#4e4e4e"/>
        <rect id="Rectangle_1618" data-name="Rectangle 1618" width="2.304" height="22.324" transform="translate(285.913)" fill="#4e4e4e"/>
        <path id="Path_10410" data-name="Path 10410" d="M9.213,35.73h2.332l8.888,20.906H17.54L15.414,51.5H4.961L2.805,56.636H0Zm1.122,3.189h-.059L5.935,49.2h8.534Z" transform="translate(0 -5.504)" fill="#4e4e4e"/>
        <path id="Path_10411" data-name="Path 10411" d="M29.165,54.23a5.814,5.814,0,0,0,1.491,1.359,3.844,3.844,0,0,0,2.052.5,5.042,5.042,0,0,0,1.078-.118,3.224,3.224,0,0,0,.989-.383,2.2,2.2,0,0,0,.709-.665,1.692,1.692,0,0,0,.266-.959,1.547,1.547,0,0,0-.251-.915,2.19,2.19,0,0,0-.664-.606,3.754,3.754,0,0,0-.945-.4q-.532-.147-1.093-.266-.973-.207-1.86-.473a6.082,6.082,0,0,1-1.55-.694,3.256,3.256,0,0,1-1.063-1.107,3.407,3.407,0,0,1-.4-1.742,3.476,3.476,0,0,1,.443-1.772,3.836,3.836,0,0,1,1.181-1.27,5.785,5.785,0,0,1,1.653-.768,6.764,6.764,0,0,1,1.89-.266,6.338,6.338,0,0,1,2.732.59A4.262,4.262,0,0,1,37.787,46.2l-1.919,1.27a3.585,3.585,0,0,0-1.167-1.2,3.228,3.228,0,0,0-1.757-.458,4.106,4.106,0,0,0-.959.118,3.019,3.019,0,0,0-.871.354,2.079,2.079,0,0,0-.635.606,1.46,1.46,0,0,0-.25.841,1.084,1.084,0,0,0,.28.754,2.467,2.467,0,0,0,.768.546,6.684,6.684,0,0,0,1.122.414,13.317,13.317,0,0,0,1.315.3,13.377,13.377,0,0,1,1.742.458,5.081,5.081,0,0,1,1.447.753,3.342,3.342,0,0,1,.975,1.182,3.871,3.871,0,0,1,.354,1.742,4,4,0,0,1-.472,2.008A3.925,3.925,0,0,1,36.5,57.228a5.513,5.513,0,0,1-1.771.753,8.69,8.69,0,0,1-2.023.236,7.785,7.785,0,0,1-3.056-.546,5.55,5.55,0,0,1-2.318-2.024Z" transform="translate(-4.211 -6.73)" fill="#4e4e4e"/>
        <path id="Path_10412" data-name="Path 10412" d="M46.236,54.23a5.814,5.814,0,0,0,1.491,1.359,3.844,3.844,0,0,0,2.052.5,5.042,5.042,0,0,0,1.078-.118,3.224,3.224,0,0,0,.989-.383,2.2,2.2,0,0,0,.709-.665,1.692,1.692,0,0,0,.266-.959,1.547,1.547,0,0,0-.251-.915,2.19,2.19,0,0,0-.664-.606,3.754,3.754,0,0,0-.945-.4q-.532-.147-1.093-.266-.973-.207-1.86-.473a6.082,6.082,0,0,1-1.55-.694,3.256,3.256,0,0,1-1.063-1.107,3.407,3.407,0,0,1-.4-1.742,3.476,3.476,0,0,1,.443-1.772,3.836,3.836,0,0,1,1.181-1.27,5.785,5.785,0,0,1,1.653-.768,6.764,6.764,0,0,1,1.89-.266,6.338,6.338,0,0,1,2.732.59A4.262,4.262,0,0,1,54.858,46.2l-1.919,1.27a3.585,3.585,0,0,0-1.167-1.2,3.228,3.228,0,0,0-1.757-.458,4.106,4.106,0,0,0-.959.118,3.019,3.019,0,0,0-.871.354,2.079,2.079,0,0,0-.635.606,1.46,1.46,0,0,0-.25.841,1.084,1.084,0,0,0,.28.754,2.467,2.467,0,0,0,.768.546,6.684,6.684,0,0,0,1.122.414,13.317,13.317,0,0,0,1.315.3,13.377,13.377,0,0,1,1.742.458,5.081,5.081,0,0,1,1.447.753,3.342,3.342,0,0,1,.975,1.182,3.871,3.871,0,0,1,.354,1.742,4,4,0,0,1-.472,2.008,3.925,3.925,0,0,1-1.255,1.343,5.513,5.513,0,0,1-1.771.753,8.69,8.69,0,0,1-2.023.236,7.785,7.785,0,0,1-3.056-.546A5.55,5.55,0,0,1,44.4,55.647Z" transform="translate(-6.84 -6.73)" fill="#4e4e4e"/>
        <path id="Path_10413" data-name="Path 10413" d="M75.49,55.352a7,7,0,0,1-2.717,2.229,8.6,8.6,0,0,1-3.425.635,7.133,7.133,0,0,1-2.923-.576,6.57,6.57,0,0,1-2.2-1.55,6.776,6.776,0,0,1-1.387-2.3,8.149,8.149,0,0,1-.488-2.835,7.918,7.918,0,0,1,.532-2.938,6.8,6.8,0,0,1,1.476-2.3A6.646,6.646,0,0,1,66.6,44.219a7.43,7.43,0,0,1,2.835-.531,7.053,7.053,0,0,1,2.657.487,5.76,5.76,0,0,1,2.082,1.418,6.369,6.369,0,0,1,1.343,2.273,9.176,9.176,0,0,1,.473,3.056v.739H64.83a4.821,4.821,0,0,0,.428,1.7,4.891,4.891,0,0,0,.959,1.417,4.423,4.423,0,0,0,1.388.96,4.241,4.241,0,0,0,1.742.354,5.507,5.507,0,0,0,2.54-.532,5.772,5.772,0,0,0,1.86-1.564Zm-1.979-5.64a3.976,3.976,0,0,0-1.151-2.835,4.141,4.141,0,0,0-3.012-1.063,4.256,4.256,0,0,0-4.517,3.9Z" transform="translate(-9.604 -6.73)" fill="#4e4e4e"/>
        <path id="Path_10414" data-name="Path 10414" d="M84.917,54.23a5.814,5.814,0,0,0,1.491,1.359,3.844,3.844,0,0,0,2.052.5,5.042,5.042,0,0,0,1.078-.118,3.224,3.224,0,0,0,.989-.383,2.2,2.2,0,0,0,.709-.665,1.692,1.692,0,0,0,.266-.959,1.547,1.547,0,0,0-.251-.915,2.189,2.189,0,0,0-.664-.606,3.754,3.754,0,0,0-.945-.4q-.532-.147-1.093-.266-.973-.207-1.86-.473a6.082,6.082,0,0,1-1.55-.694,3.256,3.256,0,0,1-1.063-1.107,3.407,3.407,0,0,1-.4-1.742,3.476,3.476,0,0,1,.443-1.772,3.836,3.836,0,0,1,1.181-1.27,5.785,5.785,0,0,1,1.653-.768,6.764,6.764,0,0,1,1.89-.266,6.338,6.338,0,0,1,2.732.59A4.262,4.262,0,0,1,93.539,46.2l-1.919,1.27a3.585,3.585,0,0,0-1.167-1.2,3.228,3.228,0,0,0-1.757-.458,4.106,4.106,0,0,0-.959.118,3.009,3.009,0,0,0-.871.354,2.078,2.078,0,0,0-.635.606,1.46,1.46,0,0,0-.25.841,1.084,1.084,0,0,0,.28.754,2.467,2.467,0,0,0,.768.546,6.684,6.684,0,0,0,1.122.414,13.317,13.317,0,0,0,1.315.3,13.377,13.377,0,0,1,1.742.458,5.081,5.081,0,0,1,1.447.753,3.342,3.342,0,0,1,.975,1.182,3.871,3.871,0,0,1,.354,1.742,4,4,0,0,1-.472,2.008,3.925,3.925,0,0,1-1.255,1.343,5.513,5.513,0,0,1-1.771.753,8.69,8.69,0,0,1-2.023.236,7.785,7.785,0,0,1-3.056-.546,5.55,5.55,0,0,1-2.318-2.024Z" transform="translate(-12.799 -6.73)" fill="#4e4e4e"/>
        <path id="Path_10415" data-name="Path 10415" d="M101.988,54.23a5.814,5.814,0,0,0,1.491,1.359,3.844,3.844,0,0,0,2.052.5,5.042,5.042,0,0,0,1.078-.118,3.224,3.224,0,0,0,.989-.383,2.2,2.2,0,0,0,.709-.665,1.692,1.692,0,0,0,.266-.959,1.547,1.547,0,0,0-.251-.915,2.19,2.19,0,0,0-.664-.606,3.754,3.754,0,0,0-.945-.4q-.532-.147-1.093-.266-.973-.207-1.86-.473a6.082,6.082,0,0,1-1.55-.694,3.256,3.256,0,0,1-1.063-1.107,3.407,3.407,0,0,1-.4-1.742,3.476,3.476,0,0,1,.443-1.772,3.836,3.836,0,0,1,1.181-1.27,5.785,5.785,0,0,1,1.653-.768,6.764,6.764,0,0,1,1.89-.266,6.338,6.338,0,0,1,2.732.59A4.262,4.262,0,0,1,110.61,46.2l-1.919,1.27a3.585,3.585,0,0,0-1.167-1.2,3.228,3.228,0,0,0-1.757-.458,4.106,4.106,0,0,0-.959.118,3.009,3.009,0,0,0-.871.354,2.079,2.079,0,0,0-.635.606,1.46,1.46,0,0,0-.25.841,1.084,1.084,0,0,0,.28.754,2.467,2.467,0,0,0,.768.546,6.684,6.684,0,0,0,1.122.414,13.317,13.317,0,0,0,1.315.3,13.377,13.377,0,0,1,1.742.458,5.081,5.081,0,0,1,1.447.753,3.342,3.342,0,0,1,.975,1.182,3.87,3.87,0,0,1,.354,1.742,4,4,0,0,1-.472,2.008,3.925,3.925,0,0,1-1.255,1.343,5.513,5.513,0,0,1-1.771.753,8.69,8.69,0,0,1-2.023.236,7.785,7.785,0,0,1-3.056-.546,5.55,5.55,0,0,1-2.318-2.024Z" transform="translate(-15.428 -6.73)" fill="#4e4e4e"/>
        <path id="Path_10416" data-name="Path 10416" d="M119.022,47.321q0-.945-.06-1.772t-.059-1.506h2.185q0,.562.03,1.123t.03,1.151h.059a4.044,4.044,0,0,1,.664-.975,4.767,4.767,0,0,1,1.02-.842,5.446,5.446,0,0,1,1.328-.59,5.538,5.538,0,0,1,1.595-.222,5.417,5.417,0,0,1,1.875.281,4.568,4.568,0,0,1,1.255.679,3.346,3.346,0,0,1,.783.856q.279.458.458.812a6.371,6.371,0,0,1,1.771-1.934,4.475,4.475,0,0,1,2.6-.695,6.764,6.764,0,0,1,2.481.4,3.938,3.938,0,0,1,1.623,1.151,4.547,4.547,0,0,1,.887,1.831,10.089,10.089,0,0,1,.266,2.407v8.386h-2.3V49.594a6.484,6.484,0,0,0-.148-1.388A3.209,3.209,0,0,0,136.827,47a2.779,2.779,0,0,0-1.033-.856,3.7,3.7,0,0,0-1.654-.326,3.312,3.312,0,0,0-1.388.3,3.485,3.485,0,0,0-1.137.826,3.877,3.877,0,0,0-.767,1.285,4.728,4.728,0,0,0-.281,1.668v7.972h-2.3V50.037a6.307,6.307,0,0,0-.62-3.263,2.241,2.241,0,0,0-2.037-.96,4.491,4.491,0,0,0-1.934.384,3.437,3.437,0,0,0-1.329,1.093,4.893,4.893,0,0,0-.767,1.683,8.628,8.628,0,0,0-.25,2.155v6.733h-2.3Z" transform="translate(-18.316 -6.73)" fill="#4e4e4e"/>
        <path id="Path_10417" data-name="Path 10417" d="M163.183,55.352a7,7,0,0,1-2.717,2.229,8.6,8.6,0,0,1-3.425.635,7.132,7.132,0,0,1-2.923-.576,6.57,6.57,0,0,1-2.2-1.55,6.776,6.776,0,0,1-1.387-2.3,8.149,8.149,0,0,1-.488-2.835,7.917,7.917,0,0,1,.532-2.938,6.8,6.8,0,0,1,1.476-2.3,6.646,6.646,0,0,1,2.244-1.492,7.43,7.43,0,0,1,2.835-.531,7.053,7.053,0,0,1,2.657.487,5.76,5.76,0,0,1,2.082,1.418,6.369,6.369,0,0,1,1.343,2.273,9.176,9.176,0,0,1,.473,3.056v.739H152.523a4.82,4.82,0,0,0,.428,1.7,4.891,4.891,0,0,0,.959,1.417,4.423,4.423,0,0,0,1.388.96,4.241,4.241,0,0,0,1.742.354,5.507,5.507,0,0,0,2.54-.532,5.772,5.772,0,0,0,1.86-1.564Zm-1.979-5.64a3.976,3.976,0,0,0-1.151-2.835,4.141,4.141,0,0,0-3.012-1.063,4.256,4.256,0,0,0-4.517,3.9Z" transform="translate(-23.113 -6.73)" fill="#4e4e4e"/>
        <path id="Path_10418" data-name="Path 10418" d="M172.572,47.321q0-.945-.059-1.772t-.059-1.506h2.185q0,.562.03,1.123t.03,1.151h.059a4,4,0,0,1,.664-.975,4.783,4.783,0,0,1,1.019-.842,5.475,5.475,0,0,1,1.328-.59,5.542,5.542,0,0,1,1.595-.222,6.081,6.081,0,0,1,2.348.414,4.415,4.415,0,0,1,1.639,1.152,4.663,4.663,0,0,1,.959,1.786,8.055,8.055,0,0,1,.31,2.288v8.534h-2.3v-8.3a4.418,4.418,0,0,0-.768-2.746,2.817,2.817,0,0,0-2.392-1,4.491,4.491,0,0,0-1.934.384,3.431,3.431,0,0,0-1.329,1.093,4.911,4.911,0,0,0-.768,1.683,8.628,8.628,0,0,0-.25,2.155v6.733h-2.3Z" transform="translate(-26.565 -6.73)" fill="#4e4e4e"/>
        <path id="Path_10419" data-name="Path 10419" d="M201.429,45.341h-4.075v6.91q0,.68.03,1.255a2.59,2.59,0,0,0,.236,1,1.581,1.581,0,0,0,.62.679,2.289,2.289,0,0,0,1.181.251,4.712,4.712,0,0,0,1.034-.118,4.312,4.312,0,0,0,1-.354l.089,2.1a5.277,5.277,0,0,1-1.315.383,8.542,8.542,0,0,1-1.373.118,5,5,0,0,1-1.979-.325,2.688,2.688,0,0,1-1.151-.915,3.406,3.406,0,0,1-.546-1.462,12.957,12.957,0,0,1-.133-1.934V45.341h-3.012V43.392h3.012V39.465h2.3v3.927h4.075Z" transform="translate(-29.582 -6.079)" fill="#4e4e4e"/>
        <path id="Path_10420" data-name="Path 10420" d="M208.708,54.23a5.814,5.814,0,0,0,1.491,1.359,3.844,3.844,0,0,0,2.052.5,5.042,5.042,0,0,0,1.078-.118,3.224,3.224,0,0,0,.989-.383,2.2,2.2,0,0,0,.709-.665,1.692,1.692,0,0,0,.266-.959,1.547,1.547,0,0,0-.251-.915,2.189,2.189,0,0,0-.664-.606,3.754,3.754,0,0,0-.945-.4q-.532-.147-1.093-.266-.973-.207-1.86-.473a6.082,6.082,0,0,1-1.55-.694,3.256,3.256,0,0,1-1.063-1.107,3.407,3.407,0,0,1-.4-1.742,3.476,3.476,0,0,1,.443-1.772,3.836,3.836,0,0,1,1.181-1.27,5.785,5.785,0,0,1,1.653-.768,6.764,6.764,0,0,1,1.89-.266,6.338,6.338,0,0,1,2.732.59A4.262,4.262,0,0,1,217.33,46.2l-1.919,1.27a3.585,3.585,0,0,0-1.167-1.2,3.228,3.228,0,0,0-1.757-.458,4.106,4.106,0,0,0-.959.118,3.009,3.009,0,0,0-.871.354,2.079,2.079,0,0,0-.635.606,1.46,1.46,0,0,0-.25.841,1.084,1.084,0,0,0,.28.754,2.467,2.467,0,0,0,.768.546,6.684,6.684,0,0,0,1.122.414,13.317,13.317,0,0,0,1.315.3A13.377,13.377,0,0,1,215,50.2a5.081,5.081,0,0,1,1.447.753,3.342,3.342,0,0,1,.975,1.182,3.871,3.871,0,0,1,.354,1.742,4,4,0,0,1-.472,2.008,3.925,3.925,0,0,1-1.255,1.343,5.512,5.512,0,0,1-1.771.753,8.69,8.69,0,0,1-2.023.236,7.785,7.785,0,0,1-3.056-.546,5.55,5.55,0,0,1-2.318-2.024Z" transform="translate(-31.868 -6.73)" fill="#4e4e4e"/>
        <path id="Path_10421" data-name="Path 10421" d="M242.649,35.73h6.2a13.207,13.207,0,0,1,2.761.281,6.829,6.829,0,0,1,2.332.945,4.855,4.855,0,0,1,1.624,1.771,6.486,6.486,0,0,1-.044,5.566,5.072,5.072,0,0,1-1.668,1.772,6.853,6.853,0,0,1-2.23.915,10.775,10.775,0,0,1-2.3.266h-4.193v9.39h-2.48Zm2.48,9.213h4.193a5.051,5.051,0,0,0,3.026-.842,3,3,0,0,0,1.167-2.613,3,3,0,0,0-1.167-2.613,5.045,5.045,0,0,0-3.026-.842h-4.193Z" transform="translate(-37.378 -5.504)" fill="#4e4e4e"/>
        <path id="Path_10422" data-name="Path 10422" d="M264.326,50.952A7.518,7.518,0,0,1,264.887,48a6.984,6.984,0,0,1,1.535-2.289,6.826,6.826,0,0,1,2.333-1.491,8.472,8.472,0,0,1,5.906,0,6.834,6.834,0,0,1,2.333,1.491A7.01,7.01,0,0,1,278.53,48a8.051,8.051,0,0,1,0,5.9,7,7,0,0,1-1.535,2.289,6.834,6.834,0,0,1-2.333,1.491,8.472,8.472,0,0,1-5.906,0,6.826,6.826,0,0,1-2.333-1.491,6.975,6.975,0,0,1-1.535-2.289,7.518,7.518,0,0,1-.561-2.952m2.48,0a5.868,5.868,0,0,0,.339,2.023,4.668,4.668,0,0,0,2.54,2.716,5.323,5.323,0,0,0,4.045,0,4.661,4.661,0,0,0,2.54-2.716,6.186,6.186,0,0,0,0-4.045,4.661,4.661,0,0,0-2.54-2.716,5.323,5.323,0,0,0-4.045,0,4.668,4.668,0,0,0-2.54,2.716,5.868,5.868,0,0,0-.339,2.023" transform="translate(-40.717 -6.73)" fill="#4e4e4e"/>
        <path id="Path_10423" data-name="Path 10423" d="M288.389,47.321q0-.945-.059-1.772t-.059-1.506h2.185q0,.562.03,1.123t.03,1.151h.059a4,4,0,0,1,.664-.975,4.783,4.783,0,0,1,1.019-.842,5.475,5.475,0,0,1,1.328-.59,5.542,5.542,0,0,1,1.595-.222,3.868,3.868,0,0,1,.473.03,2.1,2.1,0,0,1,.472.118l-.147,2.333a4.289,4.289,0,0,0-1.24-.178,3.5,3.5,0,0,0-3.086,1.373,6.481,6.481,0,0,0-.959,3.765v6.733h-2.3Z" transform="translate(-44.406 -6.73)" fill="#4e4e4e"/>
        <path id="Path_10424" data-name="Path 10424" d="M310.332,45.341h-4.075v6.91q0,.68.03,1.255a2.59,2.59,0,0,0,.236,1,1.581,1.581,0,0,0,.62.679,2.29,2.29,0,0,0,1.182.251,4.711,4.711,0,0,0,1.033-.118,4.3,4.3,0,0,0,1-.354l.089,2.1a5.277,5.277,0,0,1-1.315.383,8.541,8.541,0,0,1-1.373.118,4.987,4.987,0,0,1-1.978-.325,2.685,2.685,0,0,1-1.152-.915,3.407,3.407,0,0,1-.546-1.462,12.957,12.957,0,0,1-.133-1.934V45.341h-3.012V43.392h3.012V39.465h2.3v3.927h4.075Z" transform="translate(-46.358 -6.079)" fill="#4e4e4e"/>
        <path id="Path_10425" data-name="Path 10425" d="M317.479,45.815A6.5,6.5,0,0,1,320,44.205a8.87,8.87,0,0,1,2.968-.516q3.071,0,4.429,1.447a6.234,6.234,0,0,1,1.358,4.4v5.935q0,.591.059,1.226t.148,1.167h-2.215a4.813,4.813,0,0,1-.133-1.049q-.015-.576-.015-1.019h-.059a5.407,5.407,0,0,1-1.815,1.743,5.233,5.233,0,0,1-2.732.678A7.206,7.206,0,0,1,320,57.951a4.955,4.955,0,0,1-1.624-.783,3.858,3.858,0,0,1-1.107-1.284,3.678,3.678,0,0,1-.414-1.772,3.848,3.848,0,0,1,.887-2.687,5.377,5.377,0,0,1,2.2-1.447,10.853,10.853,0,0,1,2.835-.59q1.52-.118,2.791-.118h.886v-.414a2.823,2.823,0,0,0-.9-2.274,3.781,3.781,0,0,0-2.524-.767,6.764,6.764,0,0,0-2.2.369,5.286,5.286,0,0,0-1.9,1.137Zm6.674,5.4a8.264,8.264,0,0,0-3.514.62,2.1,2.1,0,0,0-1.3,2.037,2.006,2.006,0,0,0,.871,1.846,4.007,4.007,0,0,0,2.171.546,4.236,4.236,0,0,0,1.757-.34,3.684,3.684,0,0,0,1.255-.9,3.888,3.888,0,0,0,.768-1.314,5.389,5.389,0,0,0,.3-1.609v-.886Z" transform="translate(-48.81 -6.73)" fill="#4e4e4e"/>
        <rect id="Rectangle_1619" data-name="Rectangle 1619" width="2.304" height="22.324" transform="translate(286.417 28.809)" fill="#4e4e4e"/>
      </g>
    </g>
  </g>
</svg>
